<?xml version="1.0" encoding="UTF-8"?>
<!DOCTYPE svg PUBLIC "-//W3C//DTD SVG 1.1//EN" "http://www.w3.org/Graphics/SVG/1.1/DTD/svg11.dtd">
<!-- Creator: CorelDRAW X7 -->
<svg xmlns="http://www.w3.org/2000/svg" xml:space="preserve" width="2488px" height="1254px" version="1.1" style="shape-rendering:geometricPrecision; text-rendering:geometricPrecision; image-rendering:optimizeQuality; fill-rule:evenodd; clip-rule:evenodd"
viewBox="0 0 3380 1704"
 xmlns:xlink="http://www.w3.org/1999/xlink">
 <defs>
  <style type="text/css">
   <![CDATA[
    .fil5 {fill:#00C1DB}
    .fil7 {fill:#22201E}
    .fil4 {fill:#444444}
    .fil9 {fill:#4D4D4D}
    .fil6 {fill:#5E6060}
    .fil8 {fill:#BBBDBF}
    .fil3 {fill:#D5D5D6}
    .fil2 {fill:#FEFFFF}
    .fil1 {fill:#00C1DB;fill-rule:nonzero}
    .fil0 {fill:#026ECC;fill-rule:nonzero}
   ]]>
  </style>
 </defs>
 <g id="Layer_x0020_1">
  <metadata id="CorelCorpID_0Corel-Layer"/>
  <path class="fil0" d="M267 792c-2,4 -5,6 -8,8 -2,2 -5,3 -9,3 -4,0 -8,-2 -12,-5 -4,-3 -8,-6 -14,-10 -5,-3 -12,-7 -19,-10 -8,-3 -17,-4 -28,-4 -10,0 -19,1 -27,4 -8,3 -14,7 -20,13 -5,5 -9,11 -12,18 -3,8 -4,15 -4,24 0,8 2,15 7,21 4,6 10,11 17,15 7,5 15,9 25,12 9,3 18,7 28,11 9,4 19,8 28,13 9,5 17,11 25,18 7,7 13,16 17,26 5,10 7,22 7,36 0,20 -4,39 -11,57 -7,18 -17,33 -29,47 -13,13 -29,23 -47,31 -19,8 -40,12 -62,12 -12,0 -24,-1 -36,-4 -11,-2 -22,-6 -32,-11 -10,-4 -20,-10 -28,-17 -9,-6 -17,-14 -23,-22l26 -35c2,-2 5,-5 8,-6 3,-2 6,-3 10,-3 3,0 6,1 9,3 2,2 6,4 9,7 4,3 7,6 11,9 5,3 9,6 14,9 6,3 11,5 18,7 7,2 14,3 23,3 21,0 38,-6 50,-18 12,-12 18,-29 18,-50 0,-10 -2,-18 -6,-24 -4,-6 -10,-11 -17,-15 -8,-4 -16,-8 -25,-11 -9,-3 -18,-6 -28,-10 -9,-3 -18,-7 -28,-12 -9,-5 -17,-10 -24,-18 -7,-7 -13,-16 -17,-26 -5,-11 -7,-24 -7,-40 0,-17 3,-34 10,-50 6,-16 16,-31 28,-43 12,-12 27,-22 44,-30 17,-7 37,-11 59,-11 11,0 21,1 32,3 10,3 19,6 28,10 9,4 17,9 25,15 7,6 14,12 19,19l-22 31z"/>
  <path id="1" class="fil0" d="M455 882c-10,0 -19,2 -27,6 -8,4 -15,9 -22,16 -6,7 -12,15 -17,25 -4,10 -8,20 -11,32 23,-3 42,-7 56,-11 15,-4 26,-8 33,-12 8,-5 13,-10 16,-15 2,-5 3,-10 3,-16 0,-3 0,-6 -1,-9 -2,-3 -3,-5 -6,-8 -3,-2 -6,-4 -10,-6 -4,-1 -9,-2 -14,-2zm-83 127c0,46 19,69 58,69 8,0 16,-1 22,-3 6,-1 12,-3 17,-5 5,-3 9,-5 13,-8 4,-3 7,-6 11,-8 3,-2 6,-4 9,-6 4,-1 7,-2 11,-2 2,0 4,1 7,2 2,1 4,2 5,4l18 22c-10,10 -20,18 -29,26 -10,7 -20,13 -30,18 -10,5 -20,8 -31,10 -12,3 -24,4 -37,4 -17,0 -32,-3 -46,-9 -14,-6 -25,-14 -35,-24 -10,-11 -18,-23 -23,-38 -5,-15 -8,-31 -8,-50 0,-15 2,-30 5,-45 3,-15 8,-28 14,-42 6,-13 14,-25 23,-36 9,-11 19,-21 31,-29 11,-8 24,-14 38,-19 13,-5 28,-7 43,-7 16,0 29,2 40,7 12,4 21,10 29,17 8,6 13,14 17,23 4,8 6,16 6,25 0,13 -3,24 -8,35 -5,11 -15,21 -28,29 -13,9 -31,16 -54,22 -23,6 -53,11 -88,15l0 3z"/>
  <path id="2" class="fil0" d="M994 837l-120 291 -54 0c-6,0 -10,-5 -11,-13l-28 -168c-1,-7 -2,-14 -2,-22 -1,4 -3,8 -4,12 -1,3 -3,7 -4,11l-69 167c-4,8 -9,13 -15,13l-52 0 -49 -291 53 0c4,0 8,1 11,4 3,2 5,5 6,9l17 155c1,9 1,17 1,25 1,7 1,15 2,23 2,-8 5,-16 9,-23 3,-8 6,-16 9,-25l63 -155c2,-4 4,-7 7,-10 4,-2 8,-3 12,-3l30 0c5,0 9,1 12,3 3,3 4,6 5,10l24 155c1,9 2,17 3,25 1,8 2,15 3,23 2,-7 4,-15 7,-23 2,-8 5,-16 8,-25l56 -155c1,-4 4,-7 7,-9 3,-3 7,-4 12,-4l51 0z"/>
  <path id="3" class="fil0" d="M1182 883c-2,0 -5,0 -7,0 -2,-1 -5,-1 -7,-1 -16,0 -30,4 -44,11 -13,7 -25,17 -34,29 -10,12 -18,26 -23,43 -6,16 -9,33 -9,51 0,20 4,35 10,44 6,10 15,15 26,15 8,0 16,-3 23,-9 8,-5 15,-12 21,-22 7,-9 13,-20 19,-33 5,-12 10,-26 14,-40l11 -88zm-19 184c-13,20 -27,36 -43,47 -16,12 -34,18 -53,18 -11,0 -21,-2 -31,-7 -9,-4 -18,-11 -25,-19 -7,-9 -12,-20 -16,-32 -4,-13 -6,-28 -6,-46 0,-17 2,-34 6,-50 4,-17 11,-32 19,-47 8,-14 17,-27 29,-39 11,-13 24,-23 38,-32 14,-8 29,-15 45,-20 17,-5 34,-7 52,-7 13,0 26,1 39,3 13,2 26,5 38,10l-34 282 -37 0c-9,0 -15,-3 -18,-7 -3,-5 -5,-10 -5,-17l2 -37z"/>
  <path class="fil1" d="M932 1325c0,25 -4,48 -12,68 -7,21 -18,38 -32,53 -13,14 -29,26 -48,34 -19,8 -39,12 -61,12l-101 0 36 -292 101 0c18,0 34,3 49,9 14,6 26,15 36,26 11,11 18,24 24,40 5,15 8,32 8,50zm-39 1c0,-14 -2,-28 -6,-40 -4,-11 -9,-21 -16,-30 -7,-8 -16,-14 -26,-19 -10,-4 -21,-6 -34,-6l-62 0 -29 230 63 0c16,0 31,-3 44,-9 14,-6 25,-15 35,-27 10,-12 17,-26 22,-42 6,-17 9,-36 9,-57z"/>
  <path id="1" class="fil1" d="M1007 1343c5,-12 11,-22 18,-30 6,-9 13,-15 20,-20 6,-5 14,-8 21,-9 7,-1 15,0 22,3l-6 35c-18,-7 -33,-4 -47,8 -13,12 -24,34 -33,66l-11 96 -36 0 25 -207 18 0c8,0 12,4 12,12l-3 46z"/>
  <path id="2" class="fil1" d="M1997 1338c11,-19 24,-32 37,-42 14,-9 29,-14 43,-14 9,0 17,2 23,6 7,3 12,8 16,15 4,6 7,15 9,24 1,10 1,21 0,33l-16 132 -36 0 16 -132c2,-16 0,-28 -3,-36 -4,-8 -12,-11 -22,-11 -7,0 -13,1 -20,5 -7,3 -13,8 -20,15 -6,6 -12,14 -17,23 -5,10 -10,20 -14,31l-12 105 -36 0 25 -207 18 0c8,0 12,4 12,12l-3 41z"/>
  <path id="3" class="fil1" d="M2266 1309c-8,0 -16,1 -24,5 -7,4 -13,8 -19,15 -5,6 -10,13 -14,21 -4,9 -7,18 -9,27 21,-2 38,-5 50,-9 13,-3 23,-6 29,-10 7,-4 12,-8 14,-13 2,-4 3,-9 3,-14 0,-2 0,-5 -2,-8 -1,-2 -2,-5 -5,-7 -2,-2 -5,-4 -9,-5 -4,-2 -8,-2 -14,-2zm58 145c-7,7 -14,13 -21,18 -6,5 -13,10 -20,13 -7,3 -14,6 -22,7 -7,2 -15,3 -24,3 -12,0 -22,-2 -32,-6 -9,-4 -17,-10 -24,-17 -6,-7 -11,-16 -15,-26 -3,-11 -5,-22 -5,-35 0,-11 1,-21 3,-32 3,-10 6,-20 10,-30 4,-9 10,-18 16,-26 6,-8 13,-15 21,-21 8,-6 17,-11 26,-14 10,-4 20,-5 31,-5 11,0 20,1 27,4 8,3 14,7 19,11 5,5 9,10 11,16 2,5 3,11 3,16 0,9 -1,17 -5,24 -4,8 -10,15 -20,21 -10,6 -23,11 -41,16 -17,4 -39,8 -66,10 0,2 0,3 0,5 0,1 0,3 0,4 0,18 4,32 12,42 8,9 20,14 36,14 7,0 12,0 18,-2 5,-1 9,-3 13,-5 4,-2 8,-4 11,-6 3,-3 6,-5 8,-7 3,-2 5,-4 7,-5 2,-1 4,-2 7,-2 2,0 5,1 7,4l9 11z"/>
  <g id="_2343137455504">
   <path class="fil2" d="M1495 1181c46,-5 98,14 129,41 31,28 54,65 59,119 9,94 -57,178 -154,190 -102,13 -186,-65 -196,-159 -5,-51 14,-100 42,-131 29,-32 62,-53 120,-60zm-151 8c-2,4 -5,6 -8,10 -4,5 -5,6 -9,11 -5,7 -11,15 -17,22 0,5 -14,29 -18,38 -6,14 -10,28 -13,43 -9,48 -1,63 4,101 3,9 5,18 8,26 4,9 8,16 11,25 13,12 36,66 98,97 7,4 15,8 23,11 7,3 18,5 24,9 9,2 18,4 27,6 9,2 15,1 27,1 36,0 69,-6 99,-19 14,-6 26,-13 38,-20 9,-6 29,-24 34,-26 3,-4 12,-14 17,-19 5,-6 11,-16 17,-21 0,-5 14,-30 18,-39 5,-15 10,-30 13,-46 7,-42 2,-68 -5,-107 -2,-12 -14,-40 -19,-50l-2 -2c-5,-4 -18,-28 -26,-36 -11,-12 -18,-20 -32,-31 -30,-22 -45,-26 -82,-41 -10,-4 -41,-9 -55,-9 -43,5 -61,3 -99,20 -14,6 -28,13 -39,21 -8,5 -30,24 -34,25z"/>
   <path class="fil3" d="M1368 1355c0,-77 65,-140 142,-139 78,1 140,63 138,142 -1,78 -62,139 -141,139 -76,0 -139,-67 -139,-142zm127 -174c-58,7 -91,28 -120,60 -28,31 -47,80 -42,131 10,94 94,172 196,159 97,-12 163,-96 154,-190 -5,-54 -28,-91 -59,-119 -31,-27 -83,-46 -129,-41z"/>
   <path class="fil4" d="M1488 1292c5,-7 31,-4 40,-1 55,17 53,77 44,87 4,5 13,11 7,22 -5,10 -14,10 -25,7 -7,15 -76,40 -107,-21 -5,-11 -13,-35 -4,-45 -8,-16 -15,-29 0,-45 13,-14 28,-11 45,-4zm-104 63c0,66 57,125 116,125l12 0c64,0 120,-54 120,-122l0 -7c0,-64 -57,-119 -120,-119l-8 0c-65,0 -120,59 -120,123z"/>
   <path class="fil5" d="M1706 1484l6 23c5,19 19,67 20,79 6,-1 31,-34 36,-40 12,-15 24,-29 36,-44 12,-15 23,-28 35,-43 11,-14 26,-30 35,-43l-37 -98 -105 -26c7,39 12,65 5,107 -3,16 -8,31 -13,46 -4,9 -18,34 -18,39z"/>
   <path class="fil5" d="M1447 1582c-6,-4 -17,-6 -24,-9 -8,-3 -16,-7 -23,-11 -62,-31 -85,-85 -98,-97l-105 -27 77 205 96 16 77 -77z"/>
   <path class="fil5" d="M1344 1189c4,-1 26,-20 34,-25 11,-8 25,-15 39,-21 38,-17 56,-15 99,-20l76 -78 -215 -35c-3,2 -58,70 -59,73 -1,3 16,65 19,79 3,8 7,19 7,27z"/>
   <path class="fil5" d="M1283 1414c-5,-38 -13,-53 -4,-101 3,-15 7,-29 13,-43 4,-9 18,-33 18,-38l-31 -104c-1,6 -54,68 -63,78 -21,27 -42,52 -63,79 -7,8 -12,9 -6,22l29 78c3,4 47,15 53,16l54 13z"/>
   <path class="fil5" d="M1501 1589l-77 79 108 17c21,3 96,13 108,19l59 -74 -27 -106c-5,2 -25,20 -34,26 -12,7 -24,14 -38,20 -30,13 -63,19 -99,19z"/>
   <path class="fil5" d="M1571 1132c37,15 52,19 82,41 14,11 21,19 32,31 8,8 21,32 26,36l2 2 50 12c12,3 42,12 54,12 -1,-6 -45,-121 -52,-138l-19 -52c-4,-10 -3,-7 -16,-9l-82 -13 -77 78z"/>
   <path class="fil6" d="M1384 1355c0,-64 55,-123 120,-123l8 0c63,0 120,55 120,119l0 7c0,68 -56,122 -120,122l-12 0c-59,0 -116,-59 -116,-125zm-16 0c0,75 63,142 139,142 79,0 140,-61 141,-139 2,-79 -60,-141 -138,-142 -77,-1 -142,62 -142,139z"/>
   <path class="fil7" d="M1488 1292c2,6 10,8 12,23 1,11 -3,19 -9,26 -16,16 -34,11 -48,0 -9,10 -1,34 4,45 31,61 100,36 107,21 0,-6 -10,-12 -3,-23 5,-7 12,-6 21,-6 9,-10 11,-70 -44,-87 -9,-3 -35,-6 -40,1z"/>
   <path class="fil8" d="M1443 1341c14,11 32,16 48,0 6,-7 10,-15 9,-26 -2,-15 -10,-17 -12,-23 -17,-7 -32,-10 -45,4 -15,16 -8,29 0,45z"/>
   <path class="fil2" d="M1554 1407c11,3 20,3 25,-7 6,-11 -3,-17 -7,-22 -9,0 -16,-1 -21,6 -7,11 3,17 3,23z"/>
  </g>
  <g id="_2343137462544">
   <path class="fil9" d="M1685 935c0,-5 3,0 1,0 0,0 -1,5 -1,0zm-211 -34l1 0c0,0 -1,0 -1,0zm4 -4l0 0zm2 -2l-2 2 2 -2zm978 -242l-704 120 19 -60c7,0 6,2 10,2 12,0 35,-5 46,-7 16,-2 32,-5 47,-7 33,-5 66,-7 67,-42l520 -75 -5 69zm234 -22c-31,0 -22,-26 -20,-38 3,-20 1,-39 24,-39 28,1 19,29 18,36 -2,18 -2,41 -22,41zm-171 -109l0 0zm-1041 373c4,-16 15,-13 20,-43 13,-76 19,-78 27,-164 4,-53 13,-116 22,-169 2,-14 9,-41 9,-55l2 0c0,49 -3,98 -8,144l-14 138 138 21c0,-28 57,-264 65,-276 0,16 -5,41 -7,56 -14,82 -24,135 -42,216 -4,19 -11,88 -14,114 -2,13 -4,15 0,28 2,7 7,20 7,26 -5,-6 -9,-19 -13,-28 -9,-18 0,-95 0,-119l-138 -22 -20 73c-2,9 -7,29 -12,36 -1,3 -20,23 -22,24zm-573 -551l407 214c0,42 11,44 60,68 18,9 70,40 87,42l-2 62 -569 -326 17 -60zm1693 -2l9 0 0 2 -9 -2zm0 0l-17 -1c5,-4 12,-1 17,1zm-126 -20l0 0zm-1787 -9c-31,0 -24,-21 -22,-36 3,-24 2,-40 24,-40 23,0 22,15 19,35 -3,17 -3,41 -21,41zm158 -249l25 2 0 4 -25 -5 0 -1zm1629 258l-42 -5 -9 67 -340 -45c4,5 70,19 81,21l252 59c0,12 -3,18 -4,28 -1,14 7,10 20,12l80 13c22,2 69,12 82,12l4 -22 49 12 1 16 -48 -8 -4 31 -75 9 2 -12 -54 -9 -3 30 -539 75c-25,-37 -82,-9 -118,-9 0,-58 -13,-79 -44,-107 -24,-21 -68,-40 -106,-47 -63,-11 -138,1 -174,49 -9,12 -22,33 -22,54 -36,-8 -66,-52 -109,-36 -9,3 -7,3 -16,-2 -6,-3 -10,-6 -17,-9 -90,-45 -178,-95 -267,-140 -46,-22 -90,-46 -134,-69l9 -33 -57 -9 0 16 -69 -35 6 -32 -48 -6 7 -16 48 4 -2 23 184 30c0,-11 1,-14 2,-23 3,-21 0,-13 60,-9 40,3 280,26 285,22 -35,-8 -73,-13 -109,-20l-166 -30c-73,-13 -64,4 -54,-62 4,-27 1,-15 -38,-24l4 -9 576 -27c-25,0 -55,-3 -82,-4 -26,-1 -56,-1 -83,-4 -66,-7 -140,-5 -206,-10 -36,-3 -197,-6 -208,-11 -2,0 -10,-6 -13,-8 -18,-10 -34,-11 -56,-11 -18,1 -22,9 -31,11 -10,2 -275,-3 -299,-5 -30,-3 -335,-10 -339,-7l600 62c-11,7 -7,9 -10,29 -2,12 -5,25 -6,36 -14,-1 -57,-8 -68,-16 -6,-4 -11,-8 -18,-11 -19,-7 -51,-10 -72,-3 -10,3 -12,1 -23,-1 -67,-9 -131,-17 -198,-26 -67,-9 -132,-18 -199,-27 -21,-3 -193,-29 -198,-25l587 138 3 15 -41 -8c0,13 -4,33 -7,46 -2,16 -4,30 -7,46 -13,76 -18,66 16,71 43,7 156,28 183,28l11 -69 73 37 -14 223c5,-4 30,-109 30,-115 8,1 276,155 289,163l215 123c23,14 48,29 73,42l-1 88c3,25 1,65 1,92 28,2 57,9 86,13l85 14c17,3 41,8 58,9 1,-12 23,-70 29,-86 9,-27 20,-60 27,-88l621 -107c30,-5 62,-9 90,-15 0,19 -9,116 -6,122l57 -222 80 -12 -12 73c15,1 78,12 94,15l89 14c28,5 27,11 31,-14 4,-31 21,-118 21,-140l-39 -6 6 -13 603 50c-14,-10 -590,-104 -608,-112 -4,-2 -12,-9 -18,-12 -10,-5 -32,-10 -47,-11 -24,-1 -27,10 -49,6 -17,-3 -36,-4 -51,-7 0,-17 5,-35 8,-51 1,-9 3,-9 -3,-15l589 126c-10,-10 -402,-121 -471,-143 -27,-9 -52,-16 -78,-24 -15,-4 -26,-8 -40,-12 -32,-8 -15,-3 -33,-19 -18,-14 -53,-21 -80,-12 -12,4 -64,-14 -81,-18 -107,-28 -215,-60 -322,-89l-120 -33c-10,-3 -32,-10 -42,-10 8,6 115,44 135,52l274 102c22,9 45,18 69,26l51 20c8,2 11,2 11,12z"/>
   <path class="fil9" d="M618 717c6,-2 4,-6 8,-21 2,-9 4,-17 6,-25l69 -270c7,-27 7,-10 -60,-26l-23 342z"/>
   <path class="fil9" d="M2619 1033c7,-7 38,-142 43,-164 6,-24 41,-155 41,-167l-61 -10 -23 341z"/>
   <path class="fil9" d="M674 291c6,2 13,3 18,4 0,-8 3,-15 3,-23 1,-9 -7,-5 -17,-8 0,11 -3,18 -4,27z"/>
   <path class="fil9" d="M2681 610c8,0 9,1 19,1 0,-3 3,-20 3,-22 -1,-5 -4,-5 -18,-7 0,12 -3,18 -4,28z"/>
  </g>
 </g>
</svg>
